# AST/ASF file generated using VICON BodyLanguage
# -----------------------------------------------
:version 1.10
:name VICON
:units
  mass 1.0
  length 0.45
  angle deg
:documentation
   .ast/.asf automatically generated from VICON data using
   VICON BodyBuilder and BodyLanguage model FoxedUp or BRILLIANT.MOD
:root
   order TX TY TZ RX RY RZ
   axis XYZ
   position 0 0 0  
   orientation 0 0 0 
:bonedata
  begin
     id 1 
     name lhipjoint
     direction 0.734343 -0.627749 0.258209 
     length 2.5437 
     axis 0 0 0  XYZ
  end
  begin
     id 2 
     name lfemur
     direction 0.34202 -0.939693 0  
     length 6.7391  
     axis 0 0 20  XYZ
    dof rx ry rz
    limits (-160.0 20.0)
           (-70.0 70.0)
           (-60.0 70.0)
  end
  begin
     id 3 
     name ltibia
     direction 0.34202 -0.939693 0   
     length 7.21536   
     axis 0 0 20   XYZ
    dof rx
    limits (-10.0 170.0)
  end
  begin
     id 4 
     name lfoot
     direction 0.0489572 -0.134509 0.989702   
     length 1.61313   
     axis -90 7.62852e-016 20   XYZ
    dof rx rz
    limits (-45.0 90.0)
           (-70.0 20.0)
  end
  begin
     id 5 
     name ltoes
     direction 1.53451e-011 -4.21692e-011 1   
     length 0.823104   
     axis -90 7.62852e-016 20   XYZ
    dof rx
    limits (-90.0 20.0)
  end
  begin
     id 6 
     name rhipjoint
     direction -0.746398 -0.615468 0.253157   
     length 2.59446  
     axis 0 0 0  XYZ 
  end
  begin
     id 7 
     name rfemur
     direction -0.34202 -0.939693 0   
     length 6.7075   
     axis 0 0 -20   XYZ
    dof rx ry rz
    limits (-160.0 20.0)
           (-70.0 70.0)
           (-70.0 60.0)
  end
  begin
     id 8 
     name rtibia
     direction -0.34202 -0.939693 0   
     length 7.27262   
     axis 0 0 -20   XYZ
    dof rx
    limits (-10.0 170.0)
 end
 begin
     id 9 
     name rfoot
     direction -0.0455203 -0.125066 0.991104   
     length 1.91095  
     axis -90 -7.62852e-016 -20   XYZ
    dof rx rz
    limits (-45.0 90.0)
           (-20.0 70.0)
  end
  begin
     id 10 
     name rtoes
     direction -1.53601e-011 -4.21913e-011 1   
     length 0.969037   
     axis -90 -7.62852e-016 -20   XYZ
    dof rx
    limits (-90.0 20.0)
  end
  begin
     id 11 
     name lowerback
     direction 0.0181546 0.999122 -0.0377542   
     length 1.99916   
     axis 0 0 0   XYZ
    dof rx ry rz
    limits (-20.0 45.0)
           (-30.0 30.0)
           (-30.0 30.0)
  end
  begin
     id 12 
     name upperback
     direction 0.0203486 0.99589 0.0882534   
     length 1.951   
     axis 0 0 0   XYZ
    dof rx ry rz
    limits (-20.0 45.0)
           (-30.0 30.0)
           (-30.0 30.0)
  end
  begin
     id 13 
     name thorax
     direction 0.0131685 0.994241 0.106355   
     length 1.97461   
     axis 0 0 0   XYZ
    dof rx ry rz
    limits (-20.0 45.0)
           (-30.0 30.0)
           (-30.0 30.0)
  end
  begin
     id 14 
     name lowerneck
     direction -0.0281395 0.999325 0.023617   
     length 1.7959   
     axis 0 0 0   XYZ
    dof rx ry rz
    limits (-20.0 45.0)
           (-30.0 30.0)
           (-30.0 30.0)
  end
  begin
     id 15 
     name upperneck
     direction 0.0288721 0.991984 -0.123019   
     length 1.79917   
     axis 0 0 0   XYZ
    dof rx ry rz
    limits (-20.0 45.0)
           (-30.0 30.0)
           (-30.0 30.0)
  end
  begin
     id 16
     name head
     direction 0.0133797 0.998944 -0.0439492  
     length 1.80902  
     axis 0 0 0   XYZ
    dof rx ry rz
    limits (-20.0 45.0)
           (-30.0 30.0)
           (-30.0 30.0)
  end
  begin
     id 17 
     name lclavicle
     direction 0.919195 0.377107 0.113449  
     length 3.17815  
     axis 0 0 0   XYZ
    dof ry rz
    limits (-20.0 10.0)
           (0.0 20.0)
  end
  begin
     id 18 
     name lhumerus
     direction 1 -4.48959e-011 2.13129e-027   
     length 4.84137   
     axis 180 -30 -90   XYZ
    dof rx ry rz
    limits (-60.0 90.0)
           (-90.0 90.0)
           (-90.0 90.0)
  end
  begin
     id 19
     name lradius
     direction 1 -4.48957e-011 -6.30627e-028   
     length 3.2452   
     axis 180 -30 -90   XYZ
    dof rx
    limits (-10.0 170.0)
  end
  begin
     id 20
     name lwrist
     direction 1 -4.4901e-011 9.13299e-027   
     length 1.6226   
     axis -6.84618e-015 90 90   XYZ
    dof ry
    limits (-180.0 0.0)
 end
  begin
     id 21 
     name lhand
     direction 1 -4.48816e-011 1.82293e-026   
     length 0.521221   
     axis -1.16502e-014 90 90   XYZ
    dof rx rz
    limits (-90.0 90.0)
           (-45.0 45.0)
  end
  begin
     id 22 
     name lfingers
     direction 1 -4.49108e-011 3.65687e-026   
     length 0.420221   
     axis -2.33008e-014 90 90   XYZ
    dof rx
    limits (0.0 90.0)
  end
  begin
     id 23
     name lthumb
     direction 0.707107 -6.34943e-011 0.707107   
     length 0.603356   
     axis -90 45 5.69224e-014   XYZ
    dof rx rz
    limits (-45.0 45.0)
           (-45.0 45.0)
  end
  begin
     id 24 
     name rclavicle
     direction -0.90847 0.38596 0.160368   
     length 3.12973  
     axis 0 0 0   XYZ 
    dof ry rz
    limits (-10.0 20.0)
           (-20.0 0.0)
  end
  begin
     id 25 
     name rhumerus
     direction -1 -4.48974e-011 4.47268e-028  
     length 4.72284   
     axis 180 30 90   XYZ
    dof rx ry rz
    limits (-90.0 60.0)
           (-90.0 90.0)
           (-90.0 90.0)
  end
  begin
     id 26 
     name rradius
     direction -1 -4.48969e-011 3.43203e-027   
     length 3.23459   
     axis 180 30 90   XYZ
    dof rx
    limits (-10.0 170.0)
  end
  begin
     id 27 
     name rwrist
     direction -1 -4.48969e-011 9.12911e-027   
     length 1.6173   
     axis -6.84618e-015 -90 -90   XYZ
    dof ry
    limits (-180.0 0.0)
  end
  begin
     id 28
     name rhand
     direction -1 -4.49194e-011 1.83006e-026   
     length 0.307416   
     axis -1.16502e-014 -90 -90   XYZ
    dof rx rz
    limits (-90.0 90.0)
           (-45.0 45.0)
  end
  begin
     id 29
     name rfingers
     direction -1 -4.48423e-011 3.63103e-026   
     length 0.247847   
     axis -2.33008e-014 -90 -90   XYZ
    dof rx
    limits (0.0 90.0)
  end
  begin
     id 30
     name rthumb
     direction -0.707107 -6.34802e-011 0.707107   
     length 0.35586   
     axis -90 -45 -5.69224e-014   XYZ
    dof rx rz
    limits (-45.0 45.0)
           (-45.0 45.0)
  end
:hierarchy
  begin
    root lhipjoint rhipjoint lowerback
    lhipjoint lfemur
    lfemur ltibia
    ltibia lfoot
    lfoot ltoes
    rhipjoint rfemur
    rfemur rtibia
    rtibia rfoot
    rfoot rtoes
    lowerback upperback
    upperback thorax
    thorax lowerneck lclavicle rclavicle
    lowerneck upperneck
    upperneck head
    lclavicle lhumerus
    lhumerus lradius
    lradius lwrist
    lwrist lhand lthumb
    lhand lfingers
    rclavicle rhumerus
    rhumerus rradius
    rradius rwrist
    rwrist rhand rthumb
    rhand rfingers
  end

#!OML:ASF H:\Terrain\Patient Classification 1\Animal1\Tuesday\Animal1.ASF
:FULLY-SPECIFIED
:DEGREES
774
root 8.87078 16.0783 -18.9679 20.5861 -12.1052 3.12469
lowerback 10.9719 1.76689 2.37241
upperback 0.413182 2.50956 -2.16398
thorax -5.5218 1.14386 -3.99833
lowerneck -8.9889 14.8042 1.9372
upperneck -11.4816 19.1513 -11.2435
head -0.83814 9.72458 -3.32774
rclavicle 3.12092e-014 -1.78906e-014
rhumerus -38.4799 7.63453 -76.4131
rradius 113.582
rwrist 8.55358
rhand -0.377297 12.4171
rfingers 7.12502
rthumb 25.2289 -15.9351
lclavicle 3.12092e-014 -1.78906e-014
lhumerus -44.7901 19.4563 60.6658
lradius 126.196
lwrist -52.6356
lhand 21.4827 47.1098
lfingers 7.12502
lthumb 45.9137 70.2402
rfemur -42.2038 2.53489 16.4703
rtibia 36.9652
rfoot -12.2475 -33.4047
rtoes 9.15189
lfemur -35.4137 -20.8841 -3.30889
ltibia 22.5683
lfoot -14.341 4.66537
ltoes -24.2221
775
root 8.86941 16.077 -18.971 20.5963 -12.1661 2.80169
lowerback 11.0991 1.80495 2.59566
upperback 0.393151 2.5949 -2.0826
thorax -5.60101 1.1787 -4.0583
lowerneck -8.99987 14.7876 1.85949
upperneck -11.5089 19.1374 -11.1223
head -0.867236 9.71929 -3.28172
rclavicle 4.37326e-015 5.1684e-015
rhumerus -38.2889 7.66091 -76.413
rradius 113.414
rwrist 8.80869
rhand -0.864425 12.5027
rfingers 7.12502
rthumb 24.7622 -15.9144
lclavicle 4.37326e-015 5.1684e-015
lhumerus -44.7374 19.3943 60.7779
lradius 126.182
lwrist -52.556
lhand 21.6333 47.034
lfingers 7.12502
lthumb 46.0534 70.1063
rfemur -42.1187 2.74062 16.7721
rtibia 36.8296
rfoot -12.1529 -33.4268
rtoes 9.31173
lfemur -35.4141 -20.6724 -3.04284
ltibia 22.7603
lfoot -14.4528 4.62416
ltoes -24.7527
776
root 8.87249 16.0769 -18.9724 20.5417 -12.1816 2.60396
lowerback 11.2434 1.81235 2.80003
upperback 0.372661 2.63489 -2.05872
thorax -5.6921 1.19051 -4.16262
lowerneck -8.97054 14.7884 1.91578
upperneck -11.4678 19.14 -11.045
head -0.861292 9.71666 -3.26572
rclavicle 3.55825e-014 -2.14687e-014
rhumerus -38.19 7.66348 -76.4437
rradius 113.338
rwrist 9.02376
rhand -0.95764 12.6083
rfingers 7.12502
rthumb 24.6728 -15.8211
lclavicle 3.55825e-014 -2.14687e-014
lhumerus -44.6795 19.2618 60.8392
lradius 126.187
lwrist -52.4407
lhand 21.6545 47.3761
lfingers 7.12502
lthumb 46.0732 70.4401
rfemur -41.9712 2.82786 16.9627
rtibia 36.6961
rfoot -11.6577 -33.4496
rtoes 9.27767
lfemur -35.3846 -20.6974 -2.85519
ltibia 22.9302
lfoot -14.6045 4.64566
ltoes -24.1834
777
root 8.8752 16.0774 -18.9703 20.4975 -12.2559 2.68744
lowerback 11.2497 1.82989 2.73321
upperback 0.369001 2.64644 -2.11304
thorax -5.69891 1.19706 -4.18444
lowerneck -9.02188 14.7893 2.04263
upperneck -11.352 19.1405 -11.0021
head -0.807315 9.70673 -3.2584
rclavicle -1.19271e-014 -3.57812e-015
rhumerus -38.0518 7.78987 -76.4154
rradius 113.262
rwrist 8.99254
rhand -0.93655 12.5213
rfingers 7.12502
rthumb 24.693 -15.9053
lclavicle -1.19271e-014 -3.57812e-015
lhumerus -44.5904 19.1448 60.9217
lradius 126.15
lwrist -52.3242
lhand 21.5844 47.5318
lfingers 7.12502
lthumb 46.0081 70.623
rfemur -41.902 2.80629 16.8625
rtibia 36.6173
rfoot -10.8823 -33.3648
rtoes 9.07337
lfemur -35.3673 -20.7782 -2.96349
ltibia 23.0232
lfoot -14.6732 4.69281
ltoes -23.4029
778
root 8.87597 16.0781 -18.9676 20.4386 -12.3987 2.76228
lowerback 11.2452 1.86548 2.61123
upperback 0.409965 2.67541 -2.14986
thorax -5.65419 1.21572 -4.15701
lowerneck -9.09268 14.7929 2.10608
upperneck -11.3389 19.1413 -10.9968
head -0.785994 9.70263 -3.25858
rclavicle -1.09332e-014 3.97569e-016
rhumerus -37.786 7.88138 -76.3338
rradius 113.242
rwrist 9.02275
rhand -0.723846 12.3095
rfingers 7.12502
rthumb 24.8969 -16.0891
lclavicle -1.09332e-014 3.97569e-016
lhumerus -44.4613 19.0314 61.0883
lradius 126.087
lwrist -52.2474
lhand 21.4485 47.6687
lfingers 7.12502
lthumb 45.882 70.8122
rfemur -41.8442 2.85366 16.7459
rtibia 36.5929
rfoot -10.5168 -33.2358
rtoes 9.25584
lfemur -35.2592 -20.7394 -3.14015
ltibia 23.0709
lfoot -14.6195 4.89309
ltoes -23.9557
779
root 8.87843 16.0808 -18.9681 20.4782 -12.4229 2.66113
lowerback 11.2087 1.87213 2.72899
upperback 0.410245 2.70045 -2.12107
thorax -5.62724 1.22605 -4.19517
lowerneck -9.04479 14.7925 2.14109
upperneck -11.3711 19.1362 -11.0126
head -0.799345 9.701 -3.27466
rclavicle -4.87022e-014 2.34566e-014
rhumerus -37.5534 7.86141 -76.2274
rradius 113.338
rwrist 9.16501
rhand -0.502859 12.1407
rfingers 7.12502
rthumb 25.1086 -16.2284
lclavicle -4.87022e-014 2.34566e-014
lhumerus -44.3523 18.7959 61.3442
lradius 126.055
lwrist -52.3026
lhand 21.417 47.8257
lfingers 7.12502
lthumb 45.8528 70.9813
rfemur -41.8786 2.95639 16.7968
rtibia 36.5883
rfoot -10.8888 -33.16
rtoes 10.6129
lfemur -35.2769 -20.6604 -3.07516
ltibia 23.114
lfoot -14.6547 5.03639
ltoes -24.309
780
root 8.88027 16.0814 -18.9696 20.6431 -12.4372 2.58548
lowerback 11.0282 1.88783 2.80401
upperback 0.351364 2.73016 -2.08509
thorax -5.58388 1.23976 -4.19697
lowerneck -8.94598 14.7885 2.14208
upperneck -11.3787 19.1346 -10.9251
head -0.827315 9.70144 -3.25724
rclavicle -2.46493e-014 3.97569e-016
rhumerus -37.3389 7.87457 -76.1409
rradius 113.388
rwrist 9.0785
rhand -0.0538862 11.9943
rfingers 7.12502
rthumb 25.5388 -16.3139
lclavicle -2.46493e-014 3.97569e-016
lhumerus -44.2656 18.5724 61.6077
lradius 126.018
lwrist -52.4734
lhand 21.6627 47.8258
lfingers 7.12502
lthumb 46.0808 70.8867
rfemur -42.0803 2.99258 16.854
rtibia 36.5758
rfoot -10.9164 -33.1677
rtoes 11.0586
lfemur -35.4719 -20.5533 -2.95335
ltibia 23.1359
lfoot -14.7454 4.89668
ltoes -23.804
781
root 8.8802 16.0783 -18.9699 20.7939 -12.5464 2.4874
lowerback 10.8378 1.94128 2.84573
upperback 0.316896 2.80367 -2.07436
thorax -5.50543 1.27683 -4.21149
lowerneck -9.07674 14.8019 2.12055
upperneck -11.2132 19.1724 -10.6923
head -0.777862 9.71021 -3.15983
rclavicle -5.36719e-015 -4.77083e-015
rhumerus -37.0192 7.87182 -76.0709
rradius 113.372
rwrist 8.96514
rhand 0.424736 12.1494
rfingers 7.12502
rthumb 25.9971 -16.0923
lclavicle -5.36719e-015 -4.77083e-015
lhumerus -44.1689 18.3706 61.7522
lradius 125.978
lwrist -52.5211
lhand 21.8791 47.9032
lfingers 7.12502
lthumb 46.2814 70.8796
rfemur -42.2362 3.14758 16.9021
rtibia 36.5121
rfoot -10.6384 -33.1914
rtoes 10.217
lfemur -35.601 -20.3812 -2.85854
ltibia 23.1982
lfoot -14.6412 4.857
ltoes -23.9256
782
root 8.87894 16.0766 -18.9682 20.87 -12.7559 2.4603
lowerback 10.6985 2.00431 2.78026
upperback 0.324001 2.87571 -2.08939
thorax -5.41562 1.31641 -4.19315
lowerneck -9.32508 14.8729 2.13736
upperneck -10.9655 19.2859 -10.5103
head -0.669485 9.75149 -3.0639
rclavicle 7.87187e-014 -3.10104e-014
rhumerus -36.7002 7.894 -75.9373
rradius 113.418
rwrist 8.84273
rhand 0.480047 12.4084
rfingers 7.12502
rthumb 26.0501 -15.8255
lclavicle 7.87187e-014 -3.10104e-014
lhumerus -44.0672 18.1887 61.8585
lradius 125.951
lwrist -52.4631
lhand 21.705 47.8739
lfingers 7.12502
lthumb 46.12 70.9183
rfemur -42.3812 3.50991 16.7696
rtibia 36.5335
rfoot -10.6609 -33.2558
rtoes 9.5624
lfemur -35.5333 -20.2128 -2.90775
ltibia 23.1275
lfoot -14.4237 5.1547
ltoes -24.9663
783
root 8.87923 16.0749 -18.9662 20.8624 -12.9671 2.23236
lowerback 10.7229 2.07037 2.8995
upperback 0.347461 2.98146 -2.03302
thorax -5.39199 1.36698 -4.21663
lowerneck -9.43071 14.9138 2.2251
upperneck -10.8564 19.3399 -10.4922
head -0.607434 9.76956 -3.05151
rclavicle -4.94974e-014 1.66979e-014
rhumerus -36.4618 7.89434 -75.8413
rradius 113.502
rwrist 8.67779
rhand 0.411311 12.2863
rfingers 7.12502
rthumb 25.9843 -15.9572
lclavicle -4.94974e-014 1.66979e-014
lhumerus -43.8869 18.1254 62.028
lradius 125.876
lwrist -52.5661
lhand 21.8198 47.5585
lfingers 7.12502
lthumb 46.2265 70.5581
rfemur -42.3452 3.93807 16.8546
rtibia 36.4673
rfoot -10.7437 -33.3202
rtoes 9.47095
lfemur -35.3775 -20.0165 -2.79462
ltibia 23.1623
lfoot -14.4332 5.48724
ltoes -26.241
